<?xml version="1.0" encoding="UTF-8" standalone="no"?>
<!-- Created with Inkscape (http://www.inkscape.org/) -->

<svg
   xmlns:dc="http://purl.org/dc/elements/1.1/"
   xmlns:cc="http://creativecommons.org/ns#"
   xmlns:rdf="http://www.w3.org/1999/02/22-rdf-syntax-ns#"
   xmlns:svg="http://www.w3.org/2000/svg"
   xmlns="http://www.w3.org/2000/svg"
   xmlns:sodipodi="http://sodipodi.sourceforge.net/DTD/sodipodi-0.dtd"
   xmlns:inkscape="http://www.inkscape.org/namespaces/inkscape"
   width="44"
   height="44"
   viewBox="0 0 43.999998 43.999998"
   id="svg2"
   version="1.1"
   inkscape:version="0.91 r13725"
   sodipodi:docname="tab-free.svg">
  <defs
     id="defs4" />
  <sodipodi:namedview
     id="base"
     pagecolor="#ffffff"
     bordercolor="#666666"
     borderopacity="1.0"
     inkscape:pageopacity="0.0"
     inkscape:pageshadow="2"
     inkscape:zoom="1.75"
     inkscape:cx="-5"
     inkscape:cy="-28.571429"
     inkscape:document-units="px"
     inkscape:current-layer="layer1"
     showgrid="false"
     units="px"
     inkscape:window-width="1440"
     inkscape:window-height="851"
     inkscape:window-x="0"
     inkscape:window-y="1"
     inkscape:window-maximized="1" />
  <metadata
     id="metadata7">
    <rdf:RDF>
      <cc:Work
         rdf:about="">
        <dc:format>image/svg+xml</dc:format>
        <dc:type
           rdf:resource="http://purl.org/dc/dcmitype/StillImage" />
        <dc:title></dc:title>
      </cc:Work>
    </rdf:RDF>
  </metadata>
  <g
     inkscape:label="Layer 1"
     inkscape:groupmode="layer"
     id="layer1"
     transform="translate(0,-1008.3622)">
    <path
       style="fill:#000000"
       d="m 9.5867431,1047.7044 c -2.2485293,-1.6441 -5.0627512,-19.9167 -3.6506646,-23.7035 0.5758749,-1.5443 0.6193089,-2.8235 0.1066259,-3.1404 -2.5358468,-1.5672 1.1168359,-3.873 3.7245049,-2.3511 1.2796537,0.7469 1.0481097,0.9272 -1.2204293,0.9506 -4.7295786,0.049 -1.367507,1.9768 4.50372,2.5828 4.477682,0.4621 5.095677,0.747 3.999199,1.8435 -0.713286,0.7132 -1.861234,1.3098 -2.550992,1.3257 -0.739935,0.017 -0.527198,0.4512 0.518884,1.059 0.975146,0.5666 3.537592,0.7967 5.694325,0.5114 3.416645,-0.4521 3.7019,-0.357 2.216381,0.7387 -0.937725,0.6916 -2.539253,1.0393 -3.558954,0.7727 -1.632629,-0.4269 -1.854,0.016 -1.854,3.7068 0,2.3053 0.51249,4.7041 1.138866,5.3304 1.530368,1.5304 16.122039,1.5304 17.652409,0 1.718841,-1.7188 1.55323,-21.062 -0.192734,-22.5111 -1.648077,-1.3678 -16.877148,-0.9896 -17.346699,0.4308 -0.178486,0.5399 2.349586,1.8211 5.617936,2.8471 6.598236,2.0714 8.212912,4.1103 9.035606,11.4092 0.507567,4.5031 -0.899918,6.1381 -3.390218,3.9384 -0.880573,-0.7779 -3.843183,-1.7139 -6.583576,-2.0802 -2.740395,-0.3662 -4.982535,-1.0985 -4.982535,-1.6273 0,-0.5425 0.723895,-0.6648 1.660844,-0.2807 0.913465,0.3745 3.512198,0.9069 5.774964,1.1831 2.262764,0.2762 4.33706,1.0832 4.609545,1.7933 1.080413,2.8154 2.423326,1.1638 1.946173,-2.3936 -0.984142,-7.3373 -2.41818,-8.922 -10.205604,-11.2775 -18.1953615,-5.5039 -18.5800238,-5.5631 -16.0216055,-2.4639 1.1402054,1.3811 1.1262049,1.537 -0.1020226,1.136 -0.7829698,-0.2556 -1.5587171,-1.6063 -1.7238837,-3.0015 -0.3011729,-2.5441 0.5615601,-3.2174 2.2458637,-1.7527 0.4958809,0.4312 2.665272,1.3368 4.8208701,2.0124 3.618037,1.1338 4.073934,1.0735 5.931589,-0.7841 1.734733,-1.7347 3.125109,-2.0123 10.079282,-2.0123 11.373647,0 11.863179,0.5827 11.863179,14.1215 l 0,10.3252 -4.508009,3.5987 c -2.479404,1.9792 -5.148619,4.3429 -5.931588,5.2525 -0.895353,1.0401 -3.956109,2.0363 -8.248756,2.6845 -8.590962,1.2973 -9.066061,1.2898 -11.0684959,-0.1744 z m 16.7073519,-2.141 c 3.539212,-1.392 1.364377,-2.3482 -5.340855,-2.3482 -4.688724,0 -7.349797,-0.4194 -8.055438,-1.2697 -0.579555,-0.6984 -1.26394,-5.046 -1.520855,-9.6614 -0.51711,-9.2898 -1.4656007,-11.3466 -3.6497803,-7.9142 -1.254937,1.9721 -1.2631687,3.2951 -0.069554,11.1783 0.7446144,4.9177 1.8698012,9.563 2.5004133,10.3229 0.886695,1.0684 2.657058,1.2641 7.810895,0.8635 3.66538,-0.2848 7.411707,-0.8119 8.325172,-1.1712 z m 4.508008,-4.2463 c 0.996977,-0.6443 -0.496142,-0.9244 -4.982535,-0.9346 -8.199605,-0.018 -10.202333,-1.6764 -10.202333,-8.4453 0,-3.6531 -0.359321,-4.7285 -1.696815,-5.0783 -1.530264,-0.4001 -1.65904,0.1712 -1.311975,5.8209 0.573974,9.3435 0.816242,9.5889 9.448298,9.5718 4.026978,-0.01 7.96239,-0.4286 8.74536,-0.9345 z m -15.896659,-17.7116 c -0.652475,-0.2632 -1.720161,-0.2632 -2.372635,0 -0.652475,0.2633 -0.118632,0.4787 1.186317,0.4787 1.30495,0 1.838793,-0.2154 1.186318,-0.4787 z"
       id="path3401"
       inkscape:connector-curvature="0" />
  </g>
</svg>
