<?xml version="1.0" encoding="UTF-8" standalone="no"?>
<!-- Created with Inkscape (http://www.inkscape.org/) -->

<svg
   xmlns:dc="http://purl.org/dc/elements/1.1/"
   xmlns:cc="http://creativecommons.org/ns#"
   xmlns:rdf="http://www.w3.org/1999/02/22-rdf-syntax-ns#"
   xmlns:svg="http://www.w3.org/2000/svg"
   xmlns="http://www.w3.org/2000/svg"
   xmlns:sodipodi="http://sodipodi.sourceforge.net/DTD/sodipodi-0.dtd"
   xmlns:inkscape="http://www.inkscape.org/namespaces/inkscape"
   width="44"
   height="44"
   viewBox="0 0 44 44.000001"
   id="svg4141"
   version="1.1"
   inkscape:version="0.91 r13725"
   sodipodi:docname="tab-info.svg">
  <defs
     id="defs4143" />
  <sodipodi:namedview
     id="base"
     pagecolor="#ffffff"
     bordercolor="#666666"
     borderopacity="1.0"
     inkscape:pageopacity="0.0"
     inkscape:pageshadow="2"
     inkscape:zoom="2.3193102"
     inkscape:cx="-15.806673"
     inkscape:cy="2.6047943"
     inkscape:document-units="px"
     inkscape:current-layer="layer1"
     showgrid="false"
     units="px"
     inkscape:window-width="1440"
     inkscape:window-height="851"
     inkscape:window-x="0"
     inkscape:window-y="1"
     inkscape:window-maximized="1" />
  <metadata
     id="metadata4146">
    <rdf:RDF>
      <cc:Work
         rdf:about="">
        <dc:format>image/svg+xml</dc:format>
        <dc:type
           rdf:resource="http://purl.org/dc/dcmitype/StillImage" />
        <dc:title></dc:title>
      </cc:Work>
    </rdf:RDF>
  </metadata>
  <g
     inkscape:label="Layer 1"
     inkscape:groupmode="layer"
     id="layer1"
     transform="translate(0,-1008.3622)">
    <path
       style="fill:#000000"
       d="m 14.839096,1045.8807 c -11.0679297,-5.6207 -12.0653603,-22.7833 -1.72189,-29.6284 4.987332,-3.3005 12.3643,-3.7498 17.862873,-1.088 11.347151,5.4932 12.498499,22.7589 1.981742,29.7186 -4.936063,3.2665 -12.802517,3.6996 -18.122725,0.9978 z m 16.481415,-2.8364 c 9.924516,-6.5677 8.769353,-20.858 -2.111873,-26.1254 -7.467882,-3.6153 -15.984308,-0.3962 -19.7987738,7.4835 -2.4109134,4.9803 -2.0354077,9.6033 1.1739328,14.4529 4.648229,7.0239 13.692094,8.8509 20.736714,4.189 z M 20.50708,1031.6606 c 0.0783,-3.0488 0.427397,-3.7904 1.887486,-4.0097 1.542571,-0.2317 1.835714,0.2878 2.110276,3.74 0.30043,3.7774 0.191355,4.0092 -1.887487,4.0097 -2.024253,6e-4 -2.198411,-0.308 -2.110275,-3.74 z m 0.343935,-6.3806 c 0,-0.7334 0.782223,-1.32 1.76,-1.32 0.977778,0 1.76,0.5866 1.76,1.32 0,0.7332 -0.782222,1.32 -1.76,1.32 -0.977777,0 -1.76,-0.5868 -1.76,-1.32 z"
       id="path4234"
       inkscape:connector-curvature="0" />
  </g>
</svg>
