<?xml version="1.0" encoding="UTF-8" standalone="no"?>
<!-- Created with Inkscape (http://www.inkscape.org/) -->

<svg
   xmlns:dc="http://purl.org/dc/elements/1.1/"
   xmlns:cc="http://creativecommons.org/ns#"
   xmlns:rdf="http://www.w3.org/1999/02/22-rdf-syntax-ns#"
   xmlns:svg="http://www.w3.org/2000/svg"
   xmlns="http://www.w3.org/2000/svg"
   xmlns:sodipodi="http://sodipodi.sourceforge.net/DTD/sodipodi-0.dtd"
   xmlns:inkscape="http://www.inkscape.org/namespaces/inkscape"
   width="44"
   height="44"
   viewBox="0 0 43.999998 43.999998"
   id="svg2"
   version="1.1"
   inkscape:version="0.91 r13725"
   sodipodi:docname="tab-cards.svg">
  <defs
     id="defs4" />
  <sodipodi:namedview
     id="base"
     pagecolor="#ffffff"
     bordercolor="#666666"
     borderopacity="1.0"
     inkscape:pageopacity="0.0"
     inkscape:pageshadow="2"
     inkscape:zoom="2.55"
     inkscape:cx="21.225238"
     inkscape:cy="21.256832"
     inkscape:document-units="px"
     inkscape:current-layer="layer1"
     showgrid="false"
     inkscape:window-width="1440"
     inkscape:window-height="851"
     inkscape:window-x="0"
     inkscape:window-y="1"
     inkscape:window-maximized="1"
     units="px" />
  <metadata
     id="metadata7">
    <rdf:RDF>
      <cc:Work
         rdf:about="">
        <dc:format>image/svg+xml</dc:format>
        <dc:type
           rdf:resource="http://purl.org/dc/dcmitype/StillImage" />
        <dc:title></dc:title>
      </cc:Work>
    </rdf:RDF>
  </metadata>
  <g
     inkscape:label="Layer 1"
     inkscape:groupmode="layer"
     id="layer1"
     transform="translate(0,-1008.3622)">
    <path
       style="fill:#000000"
       d="m 8.945077,1047.015 c -1.732046,-1.8279 -4.2457959,-17.8855 -3.3271238,-21.2532 0.3354878,-1.2299 1.4493678,-2.4813 2.4752888,-2.7808 1.02592,-0.2997 2.574625,-1.5408 3.441566,-2.7582 0.866941,-1.2174 2.065526,-2.2134 2.663523,-2.2134 0.597997,0 2.106438,-1.0119 3.352093,-2.2485 2.075468,-2.0605 2.963421,-2.2485 10.620382,-2.2485 11.754197,0 12.270321,0.5589 12.250647,13.2661 -0.0082,5.3177 -0.338144,10.0756 -0.733137,10.5731 -0.394992,0.4975 -2.477695,2.1062 -4.628228,3.5749 -2.150534,1.4687 -4.569884,3.3769 -5.376334,4.2404 -0.882468,0.9449 -3.996097,1.936 -7.820122,2.4892 -8.869363,1.2832 -11.205054,1.1673 -12.918555,-0.6411 z m 13.210718,-1.0419 c 2.58004,-0.3904 5.216511,-1.1934 5.858826,-1.7844 0.905451,-0.8331 -0.253306,-0.9656 -5.157292,-0.5898 -3.478827,0.2666 -7.091341,0.2609 -8.027811,-0.012 -2.26288,-0.6609 -3.706416,-5.776 -3.713103,-13.1572 -0.0058,-6.3134 -0.88607,-7.9492 -3.010585,-5.5939 -1.039884,1.1529 -1.045589,3.0762 -0.03131,10.554 0.682173,5.0293 1.698304,9.6519 2.25807,10.2725 1.141238,1.2653 4.870317,1.3634 11.823203,0.3113 z m 8.994232,-4.5793 c 1.368521,-0.5411 0.03161,-0.7919 -4.456365,-0.8362 -9.582882,-0.094 -10.107364,-0.6879 -10.695122,-12.1012 -0.412344,-8.0069 -0.710995,-9.3637 -1.910238,-8.6781 -1.121767,0.6414 -1.369981,2.7634 -1.177227,10.0644 0.309948,11.7401 0.893536,12.4749 9.837197,12.3872 3.545697,-0.034 7.326488,-0.411 8.401755,-0.8361 z m 6.158346,-3.7775 c 1.60864,-1.4801 1.60864,-19.7457 0,-21.2259 -0.723109,-0.6653 -4.271702,-1.0792 -9.252002,-1.0792 -6.987011,0 -8.215756,0.2351 -9.090892,1.7396 -1.44127,2.4778 -1.310175,19.2118 0.161111,20.5655 1.576262,1.4503 16.60552,1.4503 18.181783,0 z"
       id="path4120"
       inkscape:connector-curvature="0" />
  </g>
</svg>
